<svg xmlns="http://www.w3.org/2000/svg" viewBox="0 0 424.24 201.55"><defs><style>.cls-1,.cls-3,.cls-4{fill:#555;}.cls-1{opacity:0.5;}.cls-2{fill:#fff;}.cls-4{opacity:0.4;}</style></defs><title>placejolder_emptyorder</title><g id="Calque_2" data-name="Calque 2"><g id="Calque_1-2" data-name="Calque 1"><path class="cls-1" d="M424.24,168.15,163.47,142.8l1.81,29,148.5,21.73c12.07,2.22,19.92,3.62,26.42.07Z"/><polygon class="cls-2" points="151.09 1.1 215.98 8.61 215.98 164.21 86.2 183.67 21.31 157.72 21.31 12.46 151.09 1.1"/><path class="cls-3" d="M86.07,184.8,20.21,158.46v-147L151.11,0l66,7.63V165.15ZM22.41,157l63.92,25.57,128.55-19.28V9.59L151.08,2.21,22.41,13.47Z"/><polygon class="cls-3" points="87.3 185.29 85.1 185.29 85.1 17.77 215.9 7.37 216.07 9.56 87.3 19.81 87.3 185.29"/><rect class="cls-3" x="52.65" y="-16.97" width="2.2" height="65.2" transform="translate(32.98 67.61) rotate(-84.43)"/><path class="cls-3" d="M91.66,63V24l31.25-1.34V59.76Zm2.2-36.91V60.6l26.85-2.83V25Z"/><polygon class="cls-4" points="187.31 167.41 87.41 184.45 85.59 19.65 215.98 8.79 187.31 167.41"/><polygon class="cls-2" points="224.13 70.36 164.37 85.84 164.37 172.68 321.93 194.41 381.69 170.87 381.69 83.94 224.13 70.36"/><path class="cls-3" d="M322.06,195.54l-.29,0-158.5-21.86V85L224,69.25l.19,0L382.79,82.93v88.68ZM165.47,171.72l156.32,21.56,58.8-23.16V85L224.23,71.47,165.47,86.69Z"/><polygon class="cls-4" points="321.02 101.15 321.02 195.31 381.69 170.87 382.59 84.85 321.02 101.15"/><polygon class="cls-3" points="322.12 193.5 319.92 193.5 319.92 102.14 164.26 86.85 164.48 84.66 322.12 100.15 322.12 193.5"/><rect class="cls-3" x="319.93" y="91.9" width="61.94" height="2.2" transform="translate(-12.11 95.51) rotate(-15.24)"/><path class="cls-3" d="M308.54,126.82,271.93,123V100.83l36.61,3.85ZM274.13,121l32.21,3.39V106.66l-32.21-3.39Z"/><polyline class="cls-1" points="355.43 81.22 248.58 90.28 275.75 73.98"/><polygon class="cls-2" points="223.23 12.82 196.97 18.79 196.97 81.75 249.49 89.62 275.75 79.12 275.75 17.41 223.23 12.82"/><path class="cls-3" d="M249.62,90.76l-.29,0-53.45-8V17.91l27.28-6.2,53.69,4.7V79.86Zm-51.55-10,51.29,7.69,25.29-10.12v-60L223.3,13.93l-25.24,5.74Z"/><polygon class="cls-3" points="250.59 90.28 248.39 90.28 248.39 23.92 196.88 19.82 197.06 17.63 250.59 21.89 250.59 90.28"/><rect class="cls-3" x="249.26" y="19.39" width="26.06" height="2.2" transform="matrix(0.98, -0.19, 0.19, 0.98, 0.75, 49.02)"/><path class="cls-3" d="M223,47.52l-27.15-2.86V28L223,30.86Zm-24.95-4.84,22.75,2.39V32.84l-22.75-2.39Z"/><polygon class="cls-4" points="250.39 23.27 250.39 88.47 274.84 78.51 276.65 16.94 250.39 23.27"/><path class="cls-1" d="M76.54,184.45l19.92,16.3s45.27-23.54,47.08-25.35-36.22-99.6-36.22-99.6L76.22,97.51Z"/><polygon class="cls-2" points="97.46 200.44 0.25 182.19 9.5 76.35 108.56 75.05 97.46 200.44"/><path class="cls-3" d="M97.61,201.55,0,183.06,9.4,75.46,108.89,74ZM1.47,182l94.38,17.64,11-124L10.67,76.77Z"/><path class="cls-3" d="M88.95,192,7.42,177.63l8.36-95.54,82.9-.2Zm-80-15.5,78.32,13.63L96.68,83.44H17.08Z"/><polygon class="cls-3" points="16.53 83.92 10.14 77.25 11.2 76.29 17.62 82.96 16.53 83.92"/><polygon class="cls-3" points="97.29 83.99 96.07 82.9 106.2 75.04 107.46 76.13 97.29 83.99"/><polygon class="cls-3" points="1.91 182.54 1.03 181.43 8.48 175.97 9.38 177.09 1.91 182.54"/><polygon class="cls-3" points="95.14 200.05 86.55 190.59 87.94 189.73 96.57 199.19 95.14 200.05"/><polygon class="cls-3" points="88.59 178.14 42.17 129.24 10.75 153.39 9.85 152.31 42.33 127.24 89.97 177.23 88.59 178.14"/><path class="cls-3" d="M66,128.62a17.92,17.92,0,0,1-13.62-7.51l1.4-.75a16.23,16.23,0,0,0,12.35,6.77c9,.67,17.12-5.26,17.82-13.24S77.62,99.24,68.57,99c-7-.18-13.35,3.53-15.88,9.21l-1.5-.5C54,101.45,61,97.33,68.7,97.52c10,.24,17.79,7.63,17,16.47S75.93,129.38,66,128.62Z"/><polygon class="cls-3" points="41 145.11 32.54 135.72 33.7 134.83 42.19 144.22 41 145.11"/><polygon class="cls-3" points="31.8 144.11 27.68 139.46 28.82 138.58 32.96 143.24 31.8 144.11"/><polygon class="cls-3" points="60.98 147.95 59.9 146.78 77.82 133.9 92.54 148.88 91.14 149.83 77.63 136.03 60.98 147.95"/><path class="cls-3" d="M63.95,122.53l-28.78-1.91c-4.16-.28-7.23-3.6-6.9-7.42l-5.87-.32a5.38,5.38,0,0,1-5.27-5.73,6,6,0,0,1,6.23-5.23l21.14.71a5.9,5.9,0,0,1,5.74,4.52l15,.62c4.68.19,8.25,3.71,7.89,7.83S68.62,122.84,63.95,122.53ZM23.24,103.3a4.48,4.48,0,0,0-4.68,3.92,4,4,0,0,0,4,4.3l7.52.39-.21,1a2.71,2.71,0,0,0-.08.4,5.65,5.65,0,0,0,5.53,5.93l28.79,1.84c3.73.24,7-2.24,7.33-5.53s-2.55-6.1-6.29-6.26l-16.35-.71,0-.62a4.36,4.36,0,0,0-4.35-3.86Z"/><polygon class="cls-3" points="36.54 113.65 29.01 113.24 29.13 111.86 36.67 112.24 36.54 113.65"/><polygon class="cls-3" points="49.53 108.58 38.57 108.1 38.69 106.69 49.66 107.14 49.53 108.58"/></g></g></svg>